<svg xmlns="http://www.w3.org/2000/svg" width="2500.000000pt" height="2500.000000pt" viewBox="0 0 2500.000000 2500.000000" preserveAspectRatio="xMidYMid meet"><g transform="translate(0.000000,2500.000000) scale(0.100000,-0.100000)" fill="#000000" stroke="none"><path d="M12240 17120 c-63 -10 -133 -22 -155 -28 -96 -26 -113 -31 -160 -46 -453 -153 -835 -485 -1044 -911 -92 -187 -130 -304 -173 -530 -18 -95 -17 -454 1 -560 19 -112 57 -256 93 -350 102 -269 221 -450 432 -660 291 -289 631 -455 1047 -510 192 -25 392 -17 600 25 56 12 179 46 214 60 348 137 549 272 762 510 332 370 510 915 452 1380 -67 544 -313 976 -734 1289 -118 87 -350 209 -485 254 -269 90 -582 118 -850 77z"></path></g></svg>